HIERARCHY
ROOT joint_Root
{
	OFFSET 0.0 0.0 0.0
	CHANNELS 6 Xposition Yposition Zposition Zrotation Xrotation Yrotation 
	JOINT Hips
	{
		OFFSET 4.5925 91.4895 -427.239
		CHANNELS 6 Xposition Yposition Zposition Zrotation Xrotation Yrotation 
		JOINT Spine
		{
			OFFSET 15.7357 0.0 0.0
			CHANNELS 6 Xposition Yposition Zposition Zrotation Xrotation Yrotation 
			JOINT Chest
			{
				OFFSET 8.98455 -0.406207 0.0
				CHANNELS 6 Xposition Yposition Zposition Zrotation Xrotation Yrotation 
				JOINT Neck
				{
					OFFSET 16.3773 0.0 0.0
					CHANNELS 6 Xposition Yposition Zposition Zrotation Xrotation Yrotation 
					JOINT Head
					{
						OFFSET 6.45672 0.0 0.0
						CHANNELS 6 Xposition Yposition Zposition Zrotation Xrotation Yrotation 
						End Site
						{
							OFFSET 0.0 0.0 0.0
						}
					}
				}
				JOINT Shoulder_L
				{
					OFFSET 12.9942 -0.242716 4.98039
					CHANNELS 6 Xposition Yposition Zposition Zrotation Xrotation Yrotation 
					JOINT UpperArm_L
					{
						OFFSET 5.34809 0.0 0.0
						CHANNELS 6 Xposition Yposition Zposition Zrotation Xrotation Yrotation 
						JOINT LowerArm_L
						{
							OFFSET 24.3286 1.87007e-05 0.0
							CHANNELS 6 Xposition Yposition Zposition Zrotation Xrotation Yrotation 
							JOINT Hand_L
							{
								OFFSET 22.2916 0.0 0.0
								CHANNELS 6 Xposition Yposition Zposition Zrotation Xrotation Yrotation 
								End Site
								{
									OFFSET 0.0 0.0 0.0
								}
							}
						}
					}
				}
				JOINT Shoulder_R
				{
					OFFSET 12.9945 -0.242716 -4.98039
					CHANNELS 6 Xposition Yposition Zposition Zrotation Xrotation Yrotation 
					JOINT UpperArm_R
					{
						OFFSET -5.34813 0.0 0.0
						CHANNELS 6 Xposition Yposition Zposition Zrotation Xrotation Yrotation 
						JOINT LowerArm_R
						{
							OFFSET -24.3289 0.000322201 0.0
							CHANNELS 6 Xposition Yposition Zposition Zrotation Xrotation Yrotation 
							JOINT Hand_R
							{
								OFFSET -22.2915 -0.000108084 0.0
								CHANNELS 6 Xposition Yposition Zposition Zrotation Xrotation Yrotation 
								End Site
								{
									OFFSET 0.0 0.0 0.0
								}
							}
						}
					}
				}
			}
		}
		JOINT UpperLeg_L
		{
			OFFSET -2.19248 -6.46944 0.0
			CHANNELS 6 Xposition Yposition Zposition Zrotation Xrotation Yrotation 
			JOINT LowerLeg_L
			{
				OFFSET 39.0811 0.0 -1.23785e-05
				CHANNELS 6 Xposition Yposition Zposition Zrotation Xrotation Yrotation 
				JOINT Foot_L
				{
					OFFSET 40.9854 0.0 -1.26872e-05
					CHANNELS 6 Xposition Yposition Zposition Zrotation Xrotation Yrotation 
					JOINT Toes_L
					{
						OFFSET 11.7543 0.0 0.0
						CHANNELS 6 Xposition Yposition Zposition Zrotation Xrotation Yrotation 
						End Site
						{
							OFFSET 0.0 0.0 0.0
						}
					}
				}
			}
		}
		JOINT UpperLeg_R
		{
			OFFSET -2.19251 6.46944 0.0
			CHANNELS 6 Xposition Yposition Zposition Zrotation Xrotation Yrotation 
			JOINT LowerLeg_R
			{
				OFFSET -39.0811 -0.00228153 -0.0401928
				CHANNELS 6 Xposition Yposition Zposition Zrotation Xrotation Yrotation 
				JOINT Foot_R
				{
					OFFSET -40.9854 0.0 0.0
					CHANNELS 6 Xposition Yposition Zposition Zrotation Xrotation Yrotation 
					JOINT Toes_R
					{
						OFFSET -11.7543 0.0 0.0
						CHANNELS 6 Xposition Yposition Zposition Zrotation Xrotation Yrotation 
						End Site
						{
							OFFSET 0.0 0.0 0.0
						}
					}
				}
			}
		}
	}
}
MOTION
Frames:	5
Frame Time:	0.0333333
0.000000 0.000000 0.000000 0.000000 0.000000 -0.000000 -2.289310 84.492800 -1.453480 86.256300 -0.987579 10.395500 15.735700 0.000005 -0.000001 83.265800 81.207000 -82.398500 8.984550 -0.406207 -0.000000 9.719210 -2.035090 1.906630 16.377300 -0.000001 -0.000001 -2.504040 -1.171940 1.025720 6.456720 -0.000001 -0.000000 -3.914230 2.214970 -1.341910 12.994200 -0.242716 4.980390 -91.551100 5.236480 -73.474900 5.348090 -0.000007 -0.000001 -64.726400 29.301500 -10.810700 24.328600 0.000019 0.000005 11.796000 18.659500 -33.135700 22.291600 -0.000001 0.000005 14.961000 5.276570 0.718121 12.994500 -0.242716 -4.980390 87.680400 11.386300 -78.404600 -5.348130 -0.000001 -0.000004 -60.537600 23.380000 -8.166220 -24.328900 0.000322 -0.000009 -2.034080 -3.411770 -30.816900 -22.291500 -0.000108 -0.000004 17.503800 5.380490 -2.304480 -2.192480 -6.469440 -0.000000 -169.305000 -11.684100 -13.138100 39.081100 -0.000007 -0.000012 -0.276759 0.184151 56.361700 40.985400 -0.000006 -0.000013 2.034890 9.893960 -82.606500 11.754300 -0.000000 0.000003 -0.000226 -0.002055 -16.654800 -2.192510 6.469440 -0.000001 -179.478000 13.573700 168.886000 -39.081100 -0.002282 -0.040193 0.055760 -0.037748 54.299200 -40.985400 0.000008 0.000006 8.917460 7.000050 -83.452500 -11.754300 -0.000006 -0.000006 -0.720671 -0.893402 -16.338600
0.000000 0.000000 0.000000 0.000000 0.000000 -0.000000 -2.809940 85.874900 -0.736890 85.738600 1.133590 10.313200 15.735700 0.000005 -0.000001 81.513700 82.087700 -81.647900 8.984550 -0.406207 -0.000000 7.887370 -2.325640 -0.107917 16.377300 -0.000001 -0.000001 -0.781291 -1.208130 1.050780 6.456720 -0.000001 -0.000000 -2.075050 1.405250 0.884317 12.994200 -0.242716 4.980390 -91.459900 4.649670 -72.547700 5.348090 -0.000007 -0.000001 -66.852800 24.582200 -8.838100 24.328600 0.000019 0.000005 10.993200 18.968700 -30.862100 22.291600 -0.000001 0.000005 16.499600 5.183500 3.120360 12.994500 -0.242716 -4.980390 87.676600 10.578900 -77.537600 -5.348130 -0.000001 -0.000004 -60.824900 17.579800 -7.829090 -24.328900 0.000322 -0.000009 -3.492310 -5.312950 -33.371400 -22.291500 -0.000108 -0.000004 13.556900 5.361770 -1.738200 -2.192480 -6.469440 -0.000000 -168.612000 -10.349800 -11.077000 39.081100 -0.000007 -0.000012 -0.257600 0.201379 51.984200 40.985400 -0.000006 -0.000013 1.708720 10.965500 -80.671900 11.754300 -0.000000 0.000003 -0.000199 -0.001845 -16.647200 -2.192510 6.469440 -0.000001 -178.908000 15.155300 171.848000 -39.081100 -0.002282 -0.040193 0.052665 -0.042322 49.421600 -40.985400 0.000008 0.000006 8.766990 6.683420 -81.410000 -11.754300 -0.000006 -0.000006 -0.780228 -0.966530 -16.575500
0.000000 0.000000 0.000000 0.000000 0.000000 -0.000000 -3.106190 88.078000 -0.087867 85.777900 2.679790 9.095990 15.735700 0.000005 -0.000001 79.657200 83.424600 -81.123800 8.984550 -0.406207 -0.000000 5.146480 -2.322590 -2.825700 16.377300 -0.000001 -0.000001 1.621000 -1.226800 1.303140 6.456720 -0.000001 -0.000000 -0.565371 0.579391 3.367580 12.994200 -0.242716 4.980390 -91.446400 4.255350 -71.207200 5.348090 -0.000007 -0.000001 -67.024200 22.449600 -6.936750 24.328600 0.000019 0.000005 7.655910 14.362600 -28.451200 22.291600 -0.000001 0.000005 16.921300 5.127740 4.470450 12.994500 -0.242716 -4.980390 87.820400 9.117510 -76.493200 -5.348130 -0.000001 -0.000004 -55.950200 12.817900 -10.945200 -24.328900 0.000322 -0.000009 -3.909430 -4.758280 -39.485800 -22.291500 -0.000108 -0.000004 13.308900 5.397080 -2.836040 -2.192480 -6.469440 -0.000000 -168.934000 -9.488640 -8.334640 39.081100 -0.000007 -0.000012 -0.204230 0.210825 44.090200 40.985400 -0.000006 -0.000013 0.965236 11.435600 -76.918300 11.754300 -0.000000 0.000003 -0.000125 -0.001246 -16.625100 -2.192510 6.469440 -0.000001 -178.732000 16.394900 175.008000 -39.081100 -0.002282 -0.040193 0.040285 -0.041983 41.397200 -40.985400 0.000008 0.000006 8.366600 7.188350 -77.262600 -11.754300 -0.000006 -0.000006 -0.859154 -1.057950 -17.138500
0.000000 0.000000 0.000000 0.000000 0.000000 -0.000000 -3.007330 90.027000 0.257284 85.976600 3.110010 7.119920 15.735700 0.000005 -0.000001 78.826100 84.956500 -81.503600 8.984550 -0.406207 -0.000000 2.093990 -1.821020 -5.316930 16.377300 -0.000001 -0.000001 4.016650 -0.927586 1.372080 6.456720 -0.000001 -0.000000 0.721317 0.030746 5.292540 12.994200 -0.242716 4.980390 -91.283900 3.466340 -69.659700 5.348090 -0.000007 -0.000001 -66.926700 20.538300 -4.659200 24.328600 0.000019 0.000005 7.074560 13.499300 -27.997100 22.291600 -0.000001 0.000005 13.833500 5.173970 3.351820 12.994500 -0.242716 -4.980390 88.246500 7.007130 -75.912100 -5.348130 -0.000001 -0.000004 -47.494200 3.871020 -17.180100 -24.328900 0.000322 -0.000009 -3.761970 -3.423540 -47.738600 -22.291500 -0.000108 -0.000004 16.495300 5.469290 -5.312430 -2.192480 -6.469440 -0.000000 -169.818000 -9.063260 -6.122100 39.081100 -0.000007 -0.000012 -0.162238 0.224270 35.882500 40.985400 -0.000006 -0.000013 0.164914 10.911900 -72.914300 11.754300 -0.000000 0.000003 -0.000085 -0.000899 -16.612100 -2.192510 6.469440 -0.000001 -179.034000 18.455500 177.202000 -39.081100 -0.002282 -0.040193 0.025892 -0.034345 33.342900 -40.985400 0.000008 0.000006 7.878260 9.702620 -72.636100 -11.754300 -0.000006 -0.000006 -0.761440 -0.926361 -18.068400
0.000000 0.000000 0.000000 0.000000 0.000000 -0.000000 -2.592640 91.178300 0.408948 85.964800 2.618620 5.668410 15.735700 0.000005 -0.000001 82.011800 85.991400 -85.208700 8.984550 -0.406207 -0.000000 0.156291 -0.901758 -6.388300 16.377300 -0.000001 -0.000001 5.032370 -0.535911 0.696068 6.456720 -0.000001 -0.000000 1.306290 -0.090881 5.529680 12.994200 -0.242716 4.980390 -91.482200 3.735020 -68.337900 5.348090 -0.000007 -0.000001 -65.891800 19.410500 -2.338550 24.328600 0.000019 0.000005 8.992990 16.062800 -29.767100 22.291600 -0.000001 0.000005 9.977960 5.219090 2.225700 12.994500 -0.242716 -4.980390 88.894000 4.545060 -76.310700 -5.348130 -0.000001 -0.000004 -37.134500 -11.776100 -25.966700 -24.328900 0.000322 -0.000009 -7.609720 -5.623910 -53.725900 -22.291500 -0.000108 -0.000004 22.674700 5.531320 -7.800320 -2.192480 -6.469440 -0.000000 -170.491000 -9.046700 -4.543250 39.081100 -0.000007 -0.000012 -0.136539 0.234416 30.219400 40.985400 -0.000006 -0.000013 -0.249876 9.938340 -70.226600 11.754300 -0.000000 0.000003 -0.000086 -0.000901 -16.612200 -2.192510 6.469440 -0.000001 -179.738000 21.498900 178.954000 -39.081100 -0.002282 -0.040193 0.015110 -0.022798 27.371000 -40.985400 0.000008 0.000006 7.343290 13.855200 -69.478100 -11.754300 -0.000006 -0.000006 -0.531682 -0.652842 -18.613700
